<mxfile host="app.diagrams.net" modified="2021-04-04T05:06:02.366Z" agent="5.0 (Windows NT 10.0; Win64; x64) AppleWebKit/537.36 (KHTML, like Gecko) Chrome/89.0.4389.114 Safari/537.36" etag="beNWoqzv_t4P2gusUrem" version="14.5.6" type="github" pages="3">
  <diagram id="R7DuB4RtTfnDyjkUob_a" name="Page-1">
    <mxGraphModel dx="464" dy="659" grid="1" gridSize="10" guides="1" tooltips="1" connect="1" arrows="1" fold="1" page="1" pageScale="1" pageWidth="2000" pageHeight="1600" math="0" shadow="0">
      <root>
        <mxCell id="0" />
        <mxCell id="1" parent="0" />
        <mxCell id="aSP-XOi8sZ-I6zT8oDi2-1" value="" style="ellipse;whiteSpace=wrap;html=1;aspect=fixed;" vertex="1" parent="1">
          <mxGeometry x="80" y="130" width="50" height="50" as="geometry" />
        </mxCell>
        <mxCell id="aSP-XOi8sZ-I6zT8oDi2-2" value="" style="ellipse;whiteSpace=wrap;html=1;aspect=fixed;" vertex="1" parent="1">
          <mxGeometry x="170" y="130" width="50" height="50" as="geometry" />
        </mxCell>
        <mxCell id="aSP-XOi8sZ-I6zT8oDi2-3" value="" style="ellipse;whiteSpace=wrap;html=1;aspect=fixed;" vertex="1" parent="1">
          <mxGeometry x="250" y="130" width="50" height="50" as="geometry" />
        </mxCell>
        <mxCell id="aSP-XOi8sZ-I6zT8oDi2-4" value="" style="ellipse;whiteSpace=wrap;html=1;aspect=fixed;" vertex="1" parent="1">
          <mxGeometry x="340" y="130" width="50" height="50" as="geometry" />
        </mxCell>
        <mxCell id="aSP-XOi8sZ-I6zT8oDi2-5" value="" style="ellipse;whiteSpace=wrap;html=1;aspect=fixed;" vertex="1" parent="1">
          <mxGeometry x="80" y="310" width="50" height="50" as="geometry" />
        </mxCell>
        <mxCell id="aSP-XOi8sZ-I6zT8oDi2-6" value="" style="ellipse;whiteSpace=wrap;html=1;aspect=fixed;" vertex="1" parent="1">
          <mxGeometry x="170" y="310" width="50" height="50" as="geometry" />
        </mxCell>
        <mxCell id="aSP-XOi8sZ-I6zT8oDi2-7" value="" style="ellipse;whiteSpace=wrap;html=1;aspect=fixed;" vertex="1" parent="1">
          <mxGeometry x="250" y="310" width="50" height="50" as="geometry" />
        </mxCell>
        <mxCell id="aSP-XOi8sZ-I6zT8oDi2-8" value="" style="ellipse;whiteSpace=wrap;html=1;aspect=fixed;" vertex="1" parent="1">
          <mxGeometry x="340" y="310" width="50" height="50" as="geometry" />
        </mxCell>
        <mxCell id="aSP-XOi8sZ-I6zT8oDi2-9" value="z1" style="text;html=1;strokeColor=none;fillColor=none;align=center;verticalAlign=middle;whiteSpace=wrap;rounded=0;" vertex="1" parent="1">
          <mxGeometry x="85" y="325" width="40" height="20" as="geometry" />
        </mxCell>
        <mxCell id="aSP-XOi8sZ-I6zT8oDi2-10" value="z2" style="text;html=1;strokeColor=none;fillColor=none;align=center;verticalAlign=middle;whiteSpace=wrap;rounded=0;" vertex="1" parent="1">
          <mxGeometry x="175" y="325" width="40" height="20" as="geometry" />
        </mxCell>
        <mxCell id="aSP-XOi8sZ-I6zT8oDi2-11" value="z3" style="text;html=1;strokeColor=none;fillColor=none;align=center;verticalAlign=middle;whiteSpace=wrap;rounded=0;" vertex="1" parent="1">
          <mxGeometry x="255" y="325" width="40" height="20" as="geometry" />
        </mxCell>
        <mxCell id="aSP-XOi8sZ-I6zT8oDi2-12" value="z4" style="text;html=1;strokeColor=none;fillColor=none;align=center;verticalAlign=middle;whiteSpace=wrap;rounded=0;" vertex="1" parent="1">
          <mxGeometry x="345" y="325" width="40" height="20" as="geometry" />
        </mxCell>
        <mxCell id="aSP-XOi8sZ-I6zT8oDi2-13" value="y1" style="text;html=1;strokeColor=none;fillColor=none;align=center;verticalAlign=middle;whiteSpace=wrap;rounded=0;" vertex="1" parent="1">
          <mxGeometry x="85" y="145" width="40" height="20" as="geometry" />
        </mxCell>
        <mxCell id="aSP-XOi8sZ-I6zT8oDi2-14" value="y2" style="text;html=1;strokeColor=none;fillColor=none;align=center;verticalAlign=middle;whiteSpace=wrap;rounded=0;" vertex="1" parent="1">
          <mxGeometry x="175" y="145" width="40" height="20" as="geometry" />
        </mxCell>
        <mxCell id="aSP-XOi8sZ-I6zT8oDi2-15" value="y3" style="text;html=1;strokeColor=none;fillColor=none;align=center;verticalAlign=middle;whiteSpace=wrap;rounded=0;" vertex="1" parent="1">
          <mxGeometry x="255" y="145" width="40" height="20" as="geometry" />
        </mxCell>
        <mxCell id="aSP-XOi8sZ-I6zT8oDi2-16" value="y4" style="text;html=1;strokeColor=none;fillColor=none;align=center;verticalAlign=middle;whiteSpace=wrap;rounded=0;" vertex="1" parent="1">
          <mxGeometry x="345" y="145" width="40" height="20" as="geometry" />
        </mxCell>
      </root>
    </mxGraphModel>
  </diagram>
  <diagram name="Copy of Page-1" id="bz0wekYMb7wmfFNrHoip">
    <mxGraphModel dx="464" dy="659" grid="1" gridSize="10" guides="1" tooltips="1" connect="1" arrows="1" fold="1" page="1" pageScale="1" pageWidth="2000" pageHeight="1600" math="0" shadow="0">
      <root>
        <mxCell id="WFIi-5ZX_l-4zj2nHgKy-0" />
        <mxCell id="WFIi-5ZX_l-4zj2nHgKy-1" parent="WFIi-5ZX_l-4zj2nHgKy-0" />
        <mxCell id="WFIi-5ZX_l-4zj2nHgKy-2" value="" style="ellipse;whiteSpace=wrap;html=1;aspect=fixed;" vertex="1" parent="WFIi-5ZX_l-4zj2nHgKy-1">
          <mxGeometry x="80" y="130" width="50" height="50" as="geometry" />
        </mxCell>
        <mxCell id="WFIi-5ZX_l-4zj2nHgKy-3" value="" style="ellipse;whiteSpace=wrap;html=1;aspect=fixed;" vertex="1" parent="WFIi-5ZX_l-4zj2nHgKy-1">
          <mxGeometry x="170" y="130" width="50" height="50" as="geometry" />
        </mxCell>
        <mxCell id="WFIi-5ZX_l-4zj2nHgKy-4" value="" style="ellipse;whiteSpace=wrap;html=1;aspect=fixed;" vertex="1" parent="WFIi-5ZX_l-4zj2nHgKy-1">
          <mxGeometry x="250" y="130" width="50" height="50" as="geometry" />
        </mxCell>
        <mxCell id="WFIi-5ZX_l-4zj2nHgKy-5" value="" style="ellipse;whiteSpace=wrap;html=1;aspect=fixed;" vertex="1" parent="WFIi-5ZX_l-4zj2nHgKy-1">
          <mxGeometry x="340" y="130" width="50" height="50" as="geometry" />
        </mxCell>
        <mxCell id="WFIi-5ZX_l-4zj2nHgKy-6" value="" style="ellipse;whiteSpace=wrap;html=1;aspect=fixed;" vertex="1" parent="WFIi-5ZX_l-4zj2nHgKy-1">
          <mxGeometry x="80" y="310" width="50" height="50" as="geometry" />
        </mxCell>
        <mxCell id="WFIi-5ZX_l-4zj2nHgKy-7" value="" style="ellipse;whiteSpace=wrap;html=1;aspect=fixed;" vertex="1" parent="WFIi-5ZX_l-4zj2nHgKy-1">
          <mxGeometry x="170" y="310" width="50" height="50" as="geometry" />
        </mxCell>
        <mxCell id="WFIi-5ZX_l-4zj2nHgKy-8" value="" style="ellipse;whiteSpace=wrap;html=1;aspect=fixed;" vertex="1" parent="WFIi-5ZX_l-4zj2nHgKy-1">
          <mxGeometry x="250" y="310" width="50" height="50" as="geometry" />
        </mxCell>
        <mxCell id="WFIi-5ZX_l-4zj2nHgKy-9" value="" style="ellipse;whiteSpace=wrap;html=1;aspect=fixed;" vertex="1" parent="WFIi-5ZX_l-4zj2nHgKy-1">
          <mxGeometry x="340" y="310" width="50" height="50" as="geometry" />
        </mxCell>
        <mxCell id="WFIi-5ZX_l-4zj2nHgKy-10" value="x1" style="text;html=1;strokeColor=none;fillColor=none;align=center;verticalAlign=middle;whiteSpace=wrap;rounded=0;" vertex="1" parent="WFIi-5ZX_l-4zj2nHgKy-1">
          <mxGeometry x="85" y="325" width="40" height="20" as="geometry" />
        </mxCell>
        <mxCell id="WFIi-5ZX_l-4zj2nHgKy-11" value="x2" style="text;html=1;strokeColor=none;fillColor=none;align=center;verticalAlign=middle;whiteSpace=wrap;rounded=0;" vertex="1" parent="WFIi-5ZX_l-4zj2nHgKy-1">
          <mxGeometry x="175" y="325" width="40" height="20" as="geometry" />
        </mxCell>
        <mxCell id="WFIi-5ZX_l-4zj2nHgKy-12" value="x3" style="text;html=1;strokeColor=none;fillColor=none;align=center;verticalAlign=middle;whiteSpace=wrap;rounded=0;" vertex="1" parent="WFIi-5ZX_l-4zj2nHgKy-1">
          <mxGeometry x="255" y="325" width="40" height="20" as="geometry" />
        </mxCell>
        <mxCell id="WFIi-5ZX_l-4zj2nHgKy-13" value="x4" style="text;html=1;strokeColor=none;fillColor=none;align=center;verticalAlign=middle;whiteSpace=wrap;rounded=0;" vertex="1" parent="WFIi-5ZX_l-4zj2nHgKy-1">
          <mxGeometry x="345" y="325" width="40" height="20" as="geometry" />
        </mxCell>
        <mxCell id="WFIi-5ZX_l-4zj2nHgKy-14" value="h1" style="text;html=1;strokeColor=none;fillColor=none;align=center;verticalAlign=middle;whiteSpace=wrap;rounded=0;" vertex="1" parent="WFIi-5ZX_l-4zj2nHgKy-1">
          <mxGeometry x="85" y="145" width="40" height="20" as="geometry" />
        </mxCell>
        <mxCell id="WFIi-5ZX_l-4zj2nHgKy-15" value="h2" style="text;html=1;strokeColor=none;fillColor=none;align=center;verticalAlign=middle;whiteSpace=wrap;rounded=0;" vertex="1" parent="WFIi-5ZX_l-4zj2nHgKy-1">
          <mxGeometry x="175" y="145" width="40" height="20" as="geometry" />
        </mxCell>
        <mxCell id="WFIi-5ZX_l-4zj2nHgKy-16" value="h3" style="text;html=1;strokeColor=none;fillColor=none;align=center;verticalAlign=middle;whiteSpace=wrap;rounded=0;" vertex="1" parent="WFIi-5ZX_l-4zj2nHgKy-1">
          <mxGeometry x="255" y="145" width="40" height="20" as="geometry" />
        </mxCell>
        <mxCell id="WFIi-5ZX_l-4zj2nHgKy-17" value="h4" style="text;html=1;strokeColor=none;fillColor=none;align=center;verticalAlign=middle;whiteSpace=wrap;rounded=0;" vertex="1" parent="WFIi-5ZX_l-4zj2nHgKy-1">
          <mxGeometry x="345" y="145" width="40" height="20" as="geometry" />
        </mxCell>
        <mxCell id="EcTQPGEL5R7KJqicjRxg-0" value="" style="endArrow=none;html=1;" edge="1" parent="WFIi-5ZX_l-4zj2nHgKy-1">
          <mxGeometry width="50" height="50" relative="1" as="geometry">
            <mxPoint x="130" y="155" as="sourcePoint" />
            <mxPoint x="170" y="155" as="targetPoint" />
          </mxGeometry>
        </mxCell>
        <mxCell id="EcTQPGEL5R7KJqicjRxg-1" value="" style="endArrow=none;html=1;entryX=0;entryY=0.5;entryDx=0;entryDy=0;" edge="1" parent="WFIi-5ZX_l-4zj2nHgKy-1" target="WFIi-5ZX_l-4zj2nHgKy-4">
          <mxGeometry width="50" height="50" relative="1" as="geometry">
            <mxPoint x="220" y="155" as="sourcePoint" />
            <mxPoint x="180" y="165" as="targetPoint" />
            <Array as="points" />
          </mxGeometry>
        </mxCell>
        <mxCell id="EcTQPGEL5R7KJqicjRxg-2" value="" style="endArrow=none;html=1;entryX=-0.155;entryY=0.65;entryDx=0;entryDy=0;entryPerimeter=0;" edge="1" parent="WFIi-5ZX_l-4zj2nHgKy-1">
          <mxGeometry width="50" height="50" relative="1" as="geometry">
            <mxPoint x="301" y="157" as="sourcePoint" />
            <mxPoint x="339.79999999999995" y="157" as="targetPoint" />
            <Array as="points" />
          </mxGeometry>
        </mxCell>
      </root>
    </mxGraphModel>
  </diagram>
  <diagram name="Copy of Copy of Page-1" id="MYfysmmSoPRf5G8VbHzV">
    <mxGraphModel dx="1278" dy="675" grid="1" gridSize="10" guides="1" tooltips="1" connect="1" arrows="1" fold="1" page="1" pageScale="1" pageWidth="2000" pageHeight="1600" math="0" shadow="0">
      <root>
        <mxCell id="UlT7pGbnanXh0RRRKegl-0" />
        <mxCell id="UlT7pGbnanXh0RRRKegl-1" parent="UlT7pGbnanXh0RRRKegl-0" />
        <mxCell id="UlT7pGbnanXh0RRRKegl-2" value="" style="ellipse;whiteSpace=wrap;html=1;aspect=fixed;" vertex="1" parent="UlT7pGbnanXh0RRRKegl-1">
          <mxGeometry x="80" y="200" width="50" height="50" as="geometry" />
        </mxCell>
        <mxCell id="UlT7pGbnanXh0RRRKegl-3" value="" style="ellipse;whiteSpace=wrap;html=1;aspect=fixed;" vertex="1" parent="UlT7pGbnanXh0RRRKegl-1">
          <mxGeometry x="170" y="200" width="50" height="50" as="geometry" />
        </mxCell>
        <mxCell id="UlT7pGbnanXh0RRRKegl-4" value="" style="ellipse;whiteSpace=wrap;html=1;aspect=fixed;" vertex="1" parent="UlT7pGbnanXh0RRRKegl-1">
          <mxGeometry x="250" y="200" width="50" height="50" as="geometry" />
        </mxCell>
        <mxCell id="UlT7pGbnanXh0RRRKegl-5" value="" style="ellipse;whiteSpace=wrap;html=1;aspect=fixed;" vertex="1" parent="UlT7pGbnanXh0RRRKegl-1">
          <mxGeometry x="336" y="200" width="50" height="50" as="geometry" />
        </mxCell>
        <mxCell id="UlT7pGbnanXh0RRRKegl-6" value="" style="ellipse;whiteSpace=wrap;html=1;aspect=fixed;" vertex="1" parent="UlT7pGbnanXh0RRRKegl-1">
          <mxGeometry x="80" y="310" width="50" height="50" as="geometry" />
        </mxCell>
        <mxCell id="UlT7pGbnanXh0RRRKegl-7" value="" style="ellipse;whiteSpace=wrap;html=1;aspect=fixed;" vertex="1" parent="UlT7pGbnanXh0RRRKegl-1">
          <mxGeometry x="170" y="310" width="50" height="50" as="geometry" />
        </mxCell>
        <mxCell id="UlT7pGbnanXh0RRRKegl-8" value="" style="ellipse;whiteSpace=wrap;html=1;aspect=fixed;" vertex="1" parent="UlT7pGbnanXh0RRRKegl-1">
          <mxGeometry x="250" y="310" width="50" height="50" as="geometry" />
        </mxCell>
        <mxCell id="UlT7pGbnanXh0RRRKegl-9" value="" style="ellipse;whiteSpace=wrap;html=1;aspect=fixed;" vertex="1" parent="UlT7pGbnanXh0RRRKegl-1">
          <mxGeometry x="336" y="310" width="50" height="50" as="geometry" />
        </mxCell>
        <mxCell id="UlT7pGbnanXh0RRRKegl-10" value="h1" style="text;html=1;strokeColor=none;fillColor=none;align=center;verticalAlign=middle;whiteSpace=wrap;rounded=0;" vertex="1" parent="UlT7pGbnanXh0RRRKegl-1">
          <mxGeometry x="85" y="325" width="40" height="20" as="geometry" />
        </mxCell>
        <mxCell id="UlT7pGbnanXh0RRRKegl-11" value="h2" style="text;html=1;strokeColor=none;fillColor=none;align=center;verticalAlign=middle;whiteSpace=wrap;rounded=0;" vertex="1" parent="UlT7pGbnanXh0RRRKegl-1">
          <mxGeometry x="175" y="325" width="40" height="20" as="geometry" />
        </mxCell>
        <mxCell id="UlT7pGbnanXh0RRRKegl-12" value="h3" style="text;html=1;strokeColor=none;fillColor=none;align=center;verticalAlign=middle;whiteSpace=wrap;rounded=0;" vertex="1" parent="UlT7pGbnanXh0RRRKegl-1">
          <mxGeometry x="255" y="325" width="40" height="20" as="geometry" />
        </mxCell>
        <mxCell id="UlT7pGbnanXh0RRRKegl-13" value="h4" style="text;html=1;strokeColor=none;fillColor=none;align=center;verticalAlign=middle;whiteSpace=wrap;rounded=0;" vertex="1" parent="UlT7pGbnanXh0RRRKegl-1">
          <mxGeometry x="340" y="326" width="40" height="20" as="geometry" />
        </mxCell>
        <mxCell id="UlT7pGbnanXh0RRRKegl-14" value="y1" style="text;html=1;strokeColor=none;fillColor=none;align=center;verticalAlign=middle;whiteSpace=wrap;rounded=0;" vertex="1" parent="UlT7pGbnanXh0RRRKegl-1">
          <mxGeometry x="85" y="215" width="40" height="20" as="geometry" />
        </mxCell>
        <mxCell id="UlT7pGbnanXh0RRRKegl-15" value="y2" style="text;html=1;strokeColor=none;fillColor=none;align=center;verticalAlign=middle;whiteSpace=wrap;rounded=0;" vertex="1" parent="UlT7pGbnanXh0RRRKegl-1">
          <mxGeometry x="175" y="215" width="40" height="20" as="geometry" />
        </mxCell>
        <mxCell id="UlT7pGbnanXh0RRRKegl-16" value="y3" style="text;html=1;strokeColor=none;fillColor=none;align=center;verticalAlign=middle;whiteSpace=wrap;rounded=0;" vertex="1" parent="UlT7pGbnanXh0RRRKegl-1">
          <mxGeometry x="255" y="215" width="40" height="20" as="geometry" />
        </mxCell>
        <mxCell id="UlT7pGbnanXh0RRRKegl-17" value="y4" style="text;html=1;strokeColor=none;fillColor=none;align=center;verticalAlign=middle;whiteSpace=wrap;rounded=0;" vertex="1" parent="UlT7pGbnanXh0RRRKegl-1">
          <mxGeometry x="341" y="215" width="40" height="20" as="geometry" />
        </mxCell>
        <mxCell id="UlT7pGbnanXh0RRRKegl-23" value="" style="endArrow=none;html=1;exitX=1;exitY=0.5;exitDx=0;exitDy=0;" edge="1" parent="UlT7pGbnanXh0RRRKegl-1" source="UlT7pGbnanXh0RRRKegl-6">
          <mxGeometry width="50" height="50" relative="1" as="geometry">
            <mxPoint x="120" y="380" as="sourcePoint" />
            <mxPoint x="170" y="335" as="targetPoint" />
          </mxGeometry>
        </mxCell>
        <mxCell id="UlT7pGbnanXh0RRRKegl-25" value="" style="endArrow=none;html=1;exitX=1;exitY=0.75;exitDx=0;exitDy=0;entryX=1;entryY=0.75;entryDx=0;entryDy=0;" edge="1" parent="UlT7pGbnanXh0RRRKegl-1">
          <mxGeometry width="50" height="50" relative="1" as="geometry">
            <mxPoint x="219" y="337" as="sourcePoint" />
            <mxPoint x="219" y="337" as="targetPoint" />
            <Array as="points">
              <mxPoint x="254" y="337" />
            </Array>
          </mxGeometry>
        </mxCell>
        <mxCell id="UlT7pGbnanXh0RRRKegl-26" value="" style="endArrow=none;html=1;exitX=1;exitY=0.75;exitDx=0;exitDy=0;" edge="1" parent="UlT7pGbnanXh0RRRKegl-1">
          <mxGeometry width="50" height="50" relative="1" as="geometry">
            <mxPoint x="304" y="338" as="sourcePoint" />
            <mxPoint x="300" y="338" as="targetPoint" />
            <Array as="points">
              <mxPoint x="340" y="338" />
            </Array>
          </mxGeometry>
        </mxCell>
        <mxCell id="UlT7pGbnanXh0RRRKegl-27" value="" style="endArrow=none;html=1;entryX=0.5;entryY=0;entryDx=0;entryDy=0;exitX=0.5;exitY=1;exitDx=0;exitDy=0;" edge="1" parent="UlT7pGbnanXh0RRRKegl-1" source="UlT7pGbnanXh0RRRKegl-2" target="UlT7pGbnanXh0RRRKegl-6">
          <mxGeometry width="50" height="50" relative="1" as="geometry">
            <mxPoint x="130" y="225" as="sourcePoint" />
            <mxPoint x="170" y="225" as="targetPoint" />
          </mxGeometry>
        </mxCell>
        <mxCell id="UlT7pGbnanXh0RRRKegl-29" value="" style="endArrow=none;html=1;entryX=0;entryY=0;entryDx=0;entryDy=0;exitX=0.5;exitY=1;exitDx=0;exitDy=0;" edge="1" parent="UlT7pGbnanXh0RRRKegl-1" target="UlT7pGbnanXh0RRRKegl-7">
          <mxGeometry width="50" height="50" relative="1" as="geometry">
            <mxPoint x="124" y="240" as="sourcePoint" />
            <mxPoint x="124" y="300" as="targetPoint" />
          </mxGeometry>
        </mxCell>
        <mxCell id="UlT7pGbnanXh0RRRKegl-30" value="" style="endArrow=none;html=1;entryX=1;entryY=0;entryDx=0;entryDy=0;exitX=0;exitY=1;exitDx=0;exitDy=0;" edge="1" parent="UlT7pGbnanXh0RRRKegl-1" source="UlT7pGbnanXh0RRRKegl-3" target="UlT7pGbnanXh0RRRKegl-6">
          <mxGeometry width="50" height="50" relative="1" as="geometry">
            <mxPoint x="200" y="250" as="sourcePoint" />
            <mxPoint x="271" y="320" as="targetPoint" />
          </mxGeometry>
        </mxCell>
        <mxCell id="UlT7pGbnanXh0RRRKegl-31" value="" style="endArrow=none;html=1;entryX=0.5;entryY=0;entryDx=0;entryDy=0;exitX=0.5;exitY=1;exitDx=0;exitDy=0;" edge="1" parent="UlT7pGbnanXh0RRRKegl-1">
          <mxGeometry width="50" height="50" relative="1" as="geometry">
            <mxPoint x="197" y="251" as="sourcePoint" />
            <mxPoint x="197" y="311" as="targetPoint" />
          </mxGeometry>
        </mxCell>
        <mxCell id="UlT7pGbnanXh0RRRKegl-33" value="" style="endArrow=none;html=1;entryX=1;entryY=1;entryDx=0;entryDy=0;exitX=0;exitY=0;exitDx=0;exitDy=0;" edge="1" parent="UlT7pGbnanXh0RRRKegl-1" source="UlT7pGbnanXh0RRRKegl-8" target="UlT7pGbnanXh0RRRKegl-3">
          <mxGeometry width="50" height="50" relative="1" as="geometry">
            <mxPoint x="220" y="360" as="sourcePoint" />
            <mxPoint x="270" y="310" as="targetPoint" />
          </mxGeometry>
        </mxCell>
        <mxCell id="UlT7pGbnanXh0RRRKegl-34" value="" style="endArrow=none;html=1;entryX=0;entryY=1;entryDx=0;entryDy=0;exitX=1;exitY=0;exitDx=0;exitDy=0;" edge="1" parent="UlT7pGbnanXh0RRRKegl-1" source="UlT7pGbnanXh0RRRKegl-7" target="UlT7pGbnanXh0RRRKegl-4">
          <mxGeometry width="50" height="50" relative="1" as="geometry">
            <mxPoint x="267.3223304703363" y="327.3223304703363" as="sourcePoint" />
            <mxPoint x="222.67766952966372" y="252.67766952966372" as="targetPoint" />
          </mxGeometry>
        </mxCell>
        <mxCell id="UlT7pGbnanXh0RRRKegl-35" value="" style="endArrow=none;html=1;entryX=0.5;entryY=1;entryDx=0;entryDy=0;exitX=0.5;exitY=0;exitDx=0;exitDy=0;" edge="1" parent="UlT7pGbnanXh0RRRKegl-1" source="UlT7pGbnanXh0RRRKegl-8" target="UlT7pGbnanXh0RRRKegl-4">
          <mxGeometry width="50" height="50" relative="1" as="geometry">
            <mxPoint x="222.67766952966372" y="327.3223304703363" as="sourcePoint" />
            <mxPoint x="267.3223304703363" y="252.67766952966372" as="targetPoint" />
          </mxGeometry>
        </mxCell>
        <mxCell id="UlT7pGbnanXh0RRRKegl-36" value="" style="endArrow=none;html=1;exitX=0;exitY=0;exitDx=0;exitDy=0;" edge="1" parent="UlT7pGbnanXh0RRRKegl-1" source="UlT7pGbnanXh0RRRKegl-9">
          <mxGeometry width="50" height="50" relative="1" as="geometry">
            <mxPoint x="285" y="320" as="sourcePoint" />
            <mxPoint x="295" y="240" as="targetPoint" />
          </mxGeometry>
        </mxCell>
        <mxCell id="UlT7pGbnanXh0RRRKegl-37" value="" style="endArrow=none;html=1;exitX=1;exitY=0;exitDx=0;exitDy=0;" edge="1" parent="UlT7pGbnanXh0RRRKegl-1" source="UlT7pGbnanXh0RRRKegl-8">
          <mxGeometry width="50" height="50" relative="1" as="geometry">
            <mxPoint x="353.3223304703363" y="327.3223304703363" as="sourcePoint" />
            <mxPoint x="341" y="240" as="targetPoint" />
          </mxGeometry>
        </mxCell>
        <mxCell id="UlT7pGbnanXh0RRRKegl-38" value="" style="endArrow=none;html=1;exitX=0.5;exitY=0;exitDx=0;exitDy=0;entryX=0.5;entryY=1;entryDx=0;entryDy=0;" edge="1" parent="UlT7pGbnanXh0RRRKegl-1" source="UlT7pGbnanXh0RRRKegl-9" target="UlT7pGbnanXh0RRRKegl-5">
          <mxGeometry width="50" height="50" relative="1" as="geometry">
            <mxPoint x="302.6776695296637" y="327.3223304703363" as="sourcePoint" />
            <mxPoint x="351" y="250" as="targetPoint" />
          </mxGeometry>
        </mxCell>
      </root>
    </mxGraphModel>
  </diagram>
</mxfile>
